<?xml version="1.0" encoding="UTF-8"?>
<svg id="Layer_1" data-name="Layer 1" xmlns="http://www.w3.org/2000/svg" viewBox="0 0 583 317">
  <g>
    <path d="M151.1626,113.8701c-.6689-17.1709-.8921-37.2422-.8921-60.6572h-.6689c-4.6831,19.8477-10.9272,42.3711-15.8335,58.874l-14.9414,52.4062h-31.4443l-12.4883-52.1836c-4.0142-16.2793-8.4741-38.5801-12.0425-59.0967h-.4458c-.8921,21.1855-1.561,43.4863-2.23,60.6572l-2.4531,53.7451H20.7031L30.0698,17.3086h54.1904l9.8125,40.3643c4.2373,16.7256,8.6973,36.7959,11.8193,55.083h.6689c4.2373-18.2871,9.1436-39.4727,13.6035-55.3066l11.3735-40.1406h52.8525l7.582,150.3066h-39.0259l-1.7842-53.7451Z"/>
    <path d="M330.4565,195.0449c-21.8545-6.4668-38.8032-13.3799-60.2119-22.5234-3.5684-1.5615-7.3594-2.2305-10.9272-2.4531-33.228-2.4531-65.5645-26.9844-65.5645-76.4912,0-43.9326,28.0991-78.9448,75.1538-78.9448,47.9463,0,72.4771,36.1274,72.4771,75.8228,0,32.3359-14.9414,56.1973-32.3359,65.1182v.8916c10.0352,3.3447,21.4087,5.5752,32.7822,8.0283l-11.3735,30.5518ZM268.0146,138.1787c19.4014,0,30.7749-18.7334,30.7749-46.1631,0-26.3145-11.5962-45.4932-31.2212-45.4932-18.9556,0-31.2207,19.1787-31.2207,45.7168-.2231,27.2061,11.8193,45.9395,31.2207,45.9395h.4463Z"/>
    <path d="M368.8135,51.2051h-38.3574V17.3086h117.748v33.8965h-39.0264v116.4102h-40.3643V51.2051Z"/>
    <path d="M482.5439,51.2051h-38.3574V17.3086h117.748v33.8965h-39.0264v116.4102h-40.3643V51.2051Z"/>
  </g>
  <g>
    <path d="M54.668,197.4941h12.9053v66.1401c0,26.2505-12.9053,34.3169-29.917,34.3169-4.8394,0-10.5586-1.0264-13.6387-2.3467l1.7598-10.4121c2.6401,1.0264,6.4531,1.9062,10.8525,1.9062,11.439,0,18.0381-5.1328,18.0381-24.4907v-65.1138Z"/>
    <path d="M76.2236,280.793c5.7197,3.666,13.9321,6.4521,22.7314,6.4521,13.0518,0,20.6777-6.8921,20.6777-16.8647,0-9.0923-5.2793-14.5186-18.625-19.5049-16.1313-5.8657-26.104-14.3716-26.104-28.1572,0-15.3984,12.7588-26.8369,31.9702-26.8369,9.9727,0,17.4517,2.3462,21.7046,4.8394l-3.5195,10.4121c-3.0796-1.9062-9.6792-4.6929-18.625-4.6929-13.4917,0-18.6245,8.0659-18.6245,14.812,0,9.2393,6.0127,13.7852,19.6514,19.0649,16.7183,6.4526,25.0771,14.5186,25.0771,29.0371,0,15.2515-11.1455,28.5972-34.4629,28.5972-9.5327,0-19.9448-2.9336-25.2246-6.4531l3.373-10.7051Z"/>
    <path d="M223.6069,245.8896c0,33.8765-20.6777,52.0615-45.9019,52.0615-26.251,0-44.436-20.3848-44.436-50.3018,0-31.3838,19.3584-51.915,45.7559-51.915,27.1304,0,44.582,20.6782,44.582,50.1553ZM146.7612,247.356c0,21.2646,11.439,40.1831,31.6768,40.1831s31.6772-18.625,31.6772-41.063c0-19.7979-10.2661-40.3291-31.5303-40.3291s-31.8237,19.6514-31.8237,41.209Z"/>
    <path d="M229.1758,296.3379v-98.8438h14.0786l31.5303,50.0088c7.186,11.5854,13.0522,21.9976,17.5981,32.1167l.4399-.147c-1.1729-13.1982-1.4663-25.2241-1.4663-40.6226v-41.356h12.0254v98.8438h-12.9053l-31.3838-50.1553c-6.8926-10.9985-13.4917-22.291-18.3315-32.9966l-.4399.1465c.7334,12.4658.8799,24.3442.8799,40.7695v42.2358h-12.0254Z"/>
    <path d="M344.147,252.0488v9.3857h-36.2231v-9.3857h36.2231Z"/>
    <path d="M348.6909,198.814c6.4526-1.1729,15.8384-2.0527,24.4912-2.0527,13.6382,0,22.584,2.6396,28.5972,8.0659,4.8394,4.3994,7.7725,11.1455,7.7725,18.918,0,12.9053-8.2124,21.5576-18.4785,25.0776v.4399c7.4795,2.6396,12.0259,9.6787,14.3721,19.9443,3.2266,13.7856,5.5728,23.3184,7.626,27.1309h-13.1987c-1.6133-2.9326-3.813-11.292-6.4526-23.6108-2.9331-13.6387-8.3594-18.7715-19.9448-19.2114h-12.0254v42.8223h-12.7588v-97.5239ZM361.4497,243.8364h13.0522c13.6387,0,22.291-7.4795,22.291-18.7715,0-12.7588-9.2393-18.3315-22.731-18.3315-6.1597,0-10.4126.4399-12.6123,1.0264v36.0767Z"/>
    <path d="M416.5879,198.6675c6.1597-1.0264,14.2251-1.9062,24.4912-1.9062,12.6118,0,21.8511,2.9326,27.7168,8.2124,5.2798,4.6929,8.6528,11.8789,8.6528,20.6777,0,8.9458-2.6396,15.9854-7.626,21.1182-6.8926,7.186-17.7451,10.8521-30.2104,10.8521-3.813,0-7.3325-.1465-10.2656-.8799v39.5962h-12.7588v-97.6704ZM429.3467,246.3296c2.7866.7329,6.3062,1.0264,10.5591,1.0264,15.3984,0,24.7842-7.626,24.7842-20.9712,0-13.1987-9.3857-19.5049-23.3179-19.5049-5.5728,0-9.8257.4399-12.0254,1.0269v38.4229Z"/>
    <path d="M552.5322,293.2578c-4.5464,2.3467-14.0786,4.6934-26.1045,4.6934-27.8638,0-48.6885-17.5981-48.6885-50.1553,0-31.0903,20.9717-51.9146,51.6216-51.9146,12.1724,0,20.0913,2.6396,23.4644,4.3994l-3.2261,10.4121c-4.6929-2.3462-11.5854-4.106-19.7983-4.106-23.1709,0-38.5693,14.8115-38.5693,40.769,0,24.3442,13.9321,39.7427,37.8364,39.7427,7.9189,0,15.8384-1.6128,20.9712-4.106l2.4932,10.2651Z"/>
  </g>
</svg>